<mxfile host="app.diagrams.net" modified="2023-04-18T06:50:30.407Z" agent="Mozilla/5.0 (X11; Linux x86_64; rv:109.0) Gecko/20100101 Firefox/112.0" etag="ZShDaDVcZByWGMhVHpKp" version="21.1.8" type="device">
  <diagram name="Page-1" id="13e1069c-82ec-6db2-03f1-153e76fe0fe0">
    <mxGraphModel dx="1434" dy="748" grid="1" gridSize="10" guides="1" tooltips="1" connect="1" arrows="1" fold="1" page="1" pageScale="1" pageWidth="1100" pageHeight="850" background="none" math="0" shadow="0">
      <root>
        <mxCell id="0" />
        <mxCell id="1" parent="0" />
        <mxCell id="7baba1c4bc27f4b0-2" value="LenderActions" style="shape=umlLifeline;perimeter=lifelinePerimeter;whiteSpace=wrap;html=1;container=1;collapsible=0;recursiveResize=0;outlineConnect=0;rounded=1;shadow=0;comic=0;labelBackgroundColor=none;strokeWidth=1;fontFamily=Verdana;fontSize=12;align=center;" parent="1" vertex="1">
          <mxGeometry x="276" y="80" width="100" height="750" as="geometry" />
        </mxCell>
        <mxCell id="7baba1c4bc27f4b0-10" value="" style="html=1;points=[];perimeter=orthogonalPerimeter;rounded=0;shadow=0;comic=0;labelBackgroundColor=none;strokeWidth=1;fontFamily=Verdana;fontSize=12;align=center;" parent="7baba1c4bc27f4b0-2" vertex="1">
          <mxGeometry x="45" y="227" width="10" height="293" as="geometry" />
        </mxCell>
        <mxCell id="4Fi33i3VNf01kXt7bkc9-30" value="" style="html=1;points=[];perimeter=orthogonalPerimeter;rounded=0;shadow=0;comic=0;labelBackgroundColor=none;strokeColor=#000000;strokeWidth=1;fillColor=#FFFFFF;fontFamily=Verdana;fontSize=12;fontColor=#000000;align=center;" parent="7baba1c4bc27f4b0-2" vertex="1">
          <mxGeometry x="54" y="290" width="10" height="160" as="geometry" />
        </mxCell>
        <mxCell id="7baba1c4bc27f4b0-3" value="PoolCommons" style="shape=umlLifeline;perimeter=lifelinePerimeter;whiteSpace=wrap;html=1;container=1;collapsible=0;recursiveResize=0;outlineConnect=0;rounded=1;shadow=0;comic=0;labelBackgroundColor=none;strokeWidth=1;fontFamily=Verdana;fontSize=12;align=center;" parent="1" vertex="1">
          <mxGeometry x="450" y="80" width="100" height="750" as="geometry" />
        </mxCell>
        <mxCell id="4Fi33i3VNf01kXt7bkc9-4" value="" style="html=1;points=[];perimeter=orthogonalPerimeter;rounded=0;shadow=0;comic=0;labelBackgroundColor=none;strokeWidth=1;fontFamily=Verdana;fontSize=12;align=center;" parent="7baba1c4bc27f4b0-3" vertex="1">
          <mxGeometry x="45" y="60" width="10" height="120" as="geometry" />
        </mxCell>
        <mxCell id="4Fi33i3VNf01kXt7bkc9-36" value="" style="html=1;points=[];perimeter=orthogonalPerimeter;rounded=0;shadow=0;comic=0;labelBackgroundColor=none;strokeWidth=1;fontFamily=Verdana;fontSize=12;align=center;" parent="7baba1c4bc27f4b0-3" vertex="1">
          <mxGeometry x="45" y="550" width="10" height="120" as="geometry" />
        </mxCell>
        <mxCell id="7baba1c4bc27f4b0-4" value="&lt;font&gt;Deposits&lt;/font&gt;" style="shape=umlLifeline;perimeter=lifelinePerimeter;whiteSpace=wrap;html=1;container=1;collapsible=0;recursiveResize=0;outlineConnect=0;rounded=1;shadow=0;comic=0;labelBackgroundColor=none;strokeWidth=1;fontFamily=Verdana;fontSize=12;align=center;" parent="1" vertex="1">
          <mxGeometry x="620" y="80" width="100" height="680" as="geometry" />
        </mxCell>
        <mxCell id="4Fi33i3VNf01kXt7bkc9-14" value="" style="html=1;points=[];perimeter=orthogonalPerimeter;rounded=0;shadow=0;comic=0;labelBackgroundColor=none;strokeWidth=1;fontFamily=Verdana;fontSize=12;align=center;" parent="7baba1c4bc27f4b0-4" vertex="1">
          <mxGeometry x="45" y="80" width="10" height="60" as="geometry" />
        </mxCell>
        <mxCell id="4Fi33i3VNf01kXt7bkc9-25" value="" style="html=1;points=[];perimeter=orthogonalPerimeter;rounded=0;shadow=0;comic=0;labelBackgroundColor=none;strokeWidth=1;fontFamily=Verdana;fontSize=12;align=center;" parent="7baba1c4bc27f4b0-4" vertex="1">
          <mxGeometry x="45" y="282" width="10" height="38" as="geometry" />
        </mxCell>
        <mxCell id="7baba1c4bc27f4b0-8" value="Pool" style="shape=umlLifeline;perimeter=lifelinePerimeter;whiteSpace=wrap;html=1;container=1;collapsible=0;recursiveResize=0;outlineConnect=0;rounded=1;shadow=0;comic=0;labelBackgroundColor=none;strokeWidth=1;fontFamily=Verdana;fontSize=12;align=center;" parent="1" vertex="1">
          <mxGeometry x="100" y="80" width="100" height="750" as="geometry" />
        </mxCell>
        <mxCell id="7baba1c4bc27f4b0-9" value="" style="html=1;points=[];perimeter=orthogonalPerimeter;rounded=0;shadow=0;comic=0;labelBackgroundColor=none;strokeWidth=1;fontFamily=Verdana;fontSize=12;align=center;" parent="7baba1c4bc27f4b0-8" vertex="1">
          <mxGeometry x="45" y="60" width="10" height="690" as="geometry" />
        </mxCell>
        <mxCell id="7baba1c4bc27f4b0-40" value="&lt;font style=&quot;font-size: 10px;&quot; face=&quot;Tahoma&quot;&gt;Similar for both ERC20 and ERC721 pools&lt;br style=&quot;font-size: 10px;&quot;&gt;&lt;/font&gt;" style="shape=note;whiteSpace=wrap;html=1;size=14;verticalAlign=top;align=left;spacingTop=-6;rounded=0;shadow=0;comic=0;labelBackgroundColor=none;strokeWidth=1;fontFamily=Verdana;fontSize=10;" parent="1" vertex="1">
          <mxGeometry x="100" y="20" width="100" height="45" as="geometry" />
        </mxCell>
        <mxCell id="7baba1c4bc27f4b0-41" value="&lt;font style=&quot;font-size: 10px;&quot; face=&quot;Tahoma&quot;&gt;External library&lt;br&gt;&lt;/font&gt;" style="shape=note;whiteSpace=wrap;html=1;size=14;verticalAlign=top;align=left;spacingTop=-6;rounded=0;shadow=0;comic=0;labelBackgroundColor=none;strokeWidth=1;fontFamily=Verdana;fontSize=12" parent="1" vertex="1">
          <mxGeometry x="276" y="30" width="100" height="35" as="geometry" />
        </mxCell>
        <mxCell id="7baba1c4bc27f4b0-42" value="&lt;font style=&quot;font-size: 10px;&quot; face=&quot;Tahoma&quot;&gt;External library&lt;br&gt;&lt;/font&gt;" style="shape=note;whiteSpace=wrap;html=1;size=14;verticalAlign=top;align=left;spacingTop=-6;rounded=0;shadow=0;comic=0;labelBackgroundColor=none;strokeWidth=1;fontFamily=Verdana;fontSize=12" parent="1" vertex="1">
          <mxGeometry x="450" y="30" width="100" height="35" as="geometry" />
        </mxCell>
        <mxCell id="7baba1c4bc27f4b0-43" value="&lt;font style=&quot;font-size: 10px;&quot; face=&quot;Tahoma&quot;&gt;Internal library&lt;br&gt;&lt;/font&gt;" style="shape=note;whiteSpace=wrap;html=1;size=14;verticalAlign=top;align=left;spacingTop=-6;rounded=0;shadow=0;comic=0;labelBackgroundColor=none;strokeWidth=1;fontFamily=Verdana;fontSize=12" parent="1" vertex="1">
          <mxGeometry x="621" y="30" width="100" height="35" as="geometry" />
        </mxCell>
        <mxCell id="4Fi33i3VNf01kXt7bkc9-8" style="edgeStyle=orthogonalEdgeStyle;rounded=0;orthogonalLoop=1;jettySize=auto;html=1;fontFamily=Tahoma;fontSize=10;entryX=0;entryY=0.092;entryDx=0;entryDy=0;entryPerimeter=0;" parent="1" source="7baba1c4bc27f4b0-9" target="4Fi33i3VNf01kXt7bkc9-4" edge="1">
          <mxGeometry relative="1" as="geometry">
            <mxPoint x="490" y="150" as="targetPoint" />
            <Array as="points">
              <mxPoint x="210" y="151" />
              <mxPoint x="210" y="151" />
            </Array>
          </mxGeometry>
        </mxCell>
        <mxCell id="4Fi33i3VNf01kXt7bkc9-11" value="&lt;div&gt;accrueInterest&lt;/div&gt;&lt;div&gt;(thresholdPrice, timeElapsed)&lt;/div&gt;" style="edgeLabel;html=1;align=center;verticalAlign=middle;resizable=0;points=[];fontSize=10;fontFamily=Tahoma;" parent="4Fi33i3VNf01kXt7bkc9-8" vertex="1" connectable="0">
          <mxGeometry x="-0.0824" relative="1" as="geometry">
            <mxPoint x="8" as="offset" />
          </mxGeometry>
        </mxCell>
        <mxCell id="4Fi33i3VNf01kXt7bkc9-10" style="edgeStyle=orthogonalEdgeStyle;rounded=0;orthogonalLoop=1;jettySize=auto;html=1;fontFamily=Tahoma;fontSize=10;dashed=1;endArrow=open;endFill=0;" parent="1" edge="1">
          <mxGeometry relative="1" as="geometry">
            <mxPoint x="492" y="253" as="sourcePoint" />
            <mxPoint x="157" y="253" as="targetPoint" />
            <Array as="points">
              <mxPoint x="207" y="253" />
              <mxPoint x="207" y="253" />
            </Array>
          </mxGeometry>
        </mxCell>
        <mxCell id="4Fi33i3VNf01kXt7bkc9-13" value="(newInflator, accruedInterest)" style="edgeLabel;html=1;align=center;verticalAlign=middle;resizable=0;points=[];fontSize=10;fontFamily=Tahoma;" parent="4Fi33i3VNf01kXt7bkc9-10" vertex="1" connectable="0">
          <mxGeometry x="0.1284" y="-1" relative="1" as="geometry">
            <mxPoint x="28" as="offset" />
          </mxGeometry>
        </mxCell>
        <mxCell id="4Fi33i3VNf01kXt7bkc9-17" style="edgeStyle=orthogonalEdgeStyle;rounded=0;orthogonalLoop=1;jettySize=auto;html=1;fontFamily=Tahoma;fontSize=10;endArrow=classic;endFill=1;" parent="1" edge="1">
          <mxGeometry relative="1" as="geometry">
            <mxPoint x="505" y="175" as="sourcePoint" />
            <mxPoint x="665" y="175" as="targetPoint" />
            <Array as="points">
              <mxPoint x="550" y="175" />
              <mxPoint x="550" y="175" />
            </Array>
          </mxGeometry>
        </mxCell>
        <mxCell id="4Fi33i3VNf01kXt7bkc9-18" value="mult()" style="edgeLabel;html=1;align=center;verticalAlign=middle;resizable=0;points=[];fontSize=10;fontFamily=Tahoma;" parent="4Fi33i3VNf01kXt7bkc9-17" vertex="1" connectable="0">
          <mxGeometry x="-0.125" y="-3" relative="1" as="geometry">
            <mxPoint x="8" y="-4" as="offset" />
          </mxGeometry>
        </mxCell>
        <mxCell id="4Fi33i3VNf01kXt7bkc9-20" value="&lt;div&gt;Scale Fenwick Tree with the new interest accrued&lt;/div&gt;&lt;div&gt;&lt;br&gt;&lt;/div&gt;&lt;div&gt;update scaling array state&lt;br&gt;&lt;/div&gt;" style="shape=note;whiteSpace=wrap;html=1;size=14;verticalAlign=top;align=left;spacingTop=-6;rounded=0;shadow=0;comic=0;labelBackgroundColor=none;strokeWidth=1;fontFamily=Verdana;fontSize=10;" parent="1" vertex="1">
          <mxGeometry x="695" y="161" width="145" height="50" as="geometry" />
        </mxCell>
        <mxCell id="4Fi33i3VNf01kXt7bkc9-22" style="edgeStyle=orthogonalEdgeStyle;rounded=0;orthogonalLoop=1;jettySize=auto;html=1;fontFamily=Verdana;fontSize=10;endArrow=open;endFill=0;exitX=-0.1;exitY=0.917;exitDx=0;exitDy=0;exitPerimeter=0;dashed=1;" parent="1" source="4Fi33i3VNf01kXt7bkc9-14" target="4Fi33i3VNf01kXt7bkc9-4" edge="1">
          <mxGeometry relative="1" as="geometry">
            <mxPoint x="510" y="215" as="targetPoint" />
            <Array as="points">
              <mxPoint x="540" y="215" />
              <mxPoint x="540" y="215" />
            </Array>
          </mxGeometry>
        </mxCell>
        <mxCell id="4Fi33i3VNf01kXt7bkc9-23" style="edgeStyle=orthogonalEdgeStyle;rounded=0;orthogonalLoop=1;jettySize=auto;html=1;fontFamily=Verdana;fontSize=10;endArrow=classic;endFill=1;" parent="1" source="7baba1c4bc27f4b0-9" edge="1">
          <mxGeometry relative="1" as="geometry">
            <mxPoint x="320" y="320" as="targetPoint" />
            <Array as="points">
              <mxPoint x="190" y="320" />
              <mxPoint x="190" y="320" />
            </Array>
          </mxGeometry>
        </mxCell>
        <mxCell id="4Fi33i3VNf01kXt7bkc9-24" value="&lt;div&gt;removeQuoteToken&lt;/div&gt;&lt;div&gt;(RemoveQuoteParams)&lt;/div&gt;" style="edgeLabel;html=1;align=center;verticalAlign=middle;resizable=0;points=[];fontSize=10;fontFamily=Verdana;" parent="4Fi33i3VNf01kXt7bkc9-23" vertex="1" connectable="0">
          <mxGeometry x="-0.1515" y="-2" relative="1" as="geometry">
            <mxPoint x="9" y="-1" as="offset" />
          </mxGeometry>
        </mxCell>
        <mxCell id="4Fi33i3VNf01kXt7bkc9-26" style="edgeStyle=orthogonalEdgeStyle;rounded=0;orthogonalLoop=1;jettySize=auto;html=1;fontFamily=Verdana;fontSize=10;endArrow=classic;endFill=1;" parent="1" edge="1">
          <mxGeometry relative="1" as="geometry">
            <mxPoint x="340" y="371" as="sourcePoint" />
            <mxPoint x="664" y="371" as="targetPoint" />
            <Array as="points">
              <mxPoint x="434" y="371" />
              <mxPoint x="434" y="371" />
            </Array>
          </mxGeometry>
        </mxCell>
        <mxCell id="4Fi33i3VNf01kXt7bkc9-29" value="unscaledRemove()" style="edgeLabel;html=1;align=center;verticalAlign=middle;resizable=0;points=[];fontSize=10;fontFamily=Verdana;" parent="4Fi33i3VNf01kXt7bkc9-26" vertex="1" connectable="0">
          <mxGeometry x="-0.0942" relative="1" as="geometry">
            <mxPoint x="16" as="offset" />
          </mxGeometry>
        </mxCell>
        <mxCell id="4Fi33i3VNf01kXt7bkc9-27" value="&lt;div&gt;remove amount from Fenwick Tree index&lt;br&gt;&lt;/div&gt;&lt;div&gt;&lt;br&gt;&lt;/div&gt;&lt;div&gt;update values array state&lt;br&gt;&lt;/div&gt;" style="shape=note;whiteSpace=wrap;html=1;size=14;verticalAlign=top;align=left;spacingTop=-6;rounded=0;shadow=0;comic=0;labelBackgroundColor=none;strokeWidth=1;fontFamily=Verdana;fontSize=10;" parent="1" vertex="1">
          <mxGeometry x="686" y="358" width="145" height="50" as="geometry" />
        </mxCell>
        <mxCell id="4Fi33i3VNf01kXt7bkc9-28" value="&lt;div&gt;reverts on&lt;/div&gt;&lt;div&gt;NoClaim()&lt;/div&gt;" style="shape=note;whiteSpace=wrap;html=1;size=14;verticalAlign=top;align=left;spacingTop=-6;rounded=0;shadow=0;comic=0;labelBackgroundColor=none;strokeWidth=1;fontFamily=Verdana;fontSize=10;" parent="1" vertex="1">
          <mxGeometry x="340" y="310" width="145" height="40" as="geometry" />
        </mxCell>
        <mxCell id="4Fi33i3VNf01kXt7bkc9-31" value="&lt;div&gt;decrement lender.lps&lt;br&gt;&lt;/div&gt;&lt;div&gt;decrement bucket.lps (if bucket insolvent set lps =0 and set bankruptcyTime&lt;br&gt;&lt;/div&gt;" style="shape=note;whiteSpace=wrap;html=1;size=14;verticalAlign=top;align=left;spacingTop=-6;rounded=0;shadow=0;comic=0;labelBackgroundColor=none;strokeWidth=1;fontFamily=Verdana;fontSize=10;" parent="1" vertex="1">
          <mxGeometry x="346" y="480" width="145" height="60" as="geometry" />
        </mxCell>
        <mxCell id="4Fi33i3VNf01kXt7bkc9-32" style="edgeStyle=orthogonalEdgeStyle;rounded=0;orthogonalLoop=1;jettySize=auto;html=1;entryX=1.1;entryY=0.169;entryDx=0;entryDy=0;entryPerimeter=0;fontFamily=Verdana;fontSize=10;endArrow=open;endFill=0;dashed=1;" parent="1" target="4Fi33i3VNf01kXt7bkc9-30" edge="1">
          <mxGeometry relative="1" as="geometry">
            <mxPoint x="662" y="396" as="sourcePoint" />
            <mxPoint x="345" y="395.53999999999996" as="targetPoint" />
            <Array as="points">
              <mxPoint x="662" y="397" />
            </Array>
          </mxGeometry>
        </mxCell>
        <mxCell id="4Fi33i3VNf01kXt7bkc9-34" value="emit RemoveQuoteToken()" style="shape=note;whiteSpace=wrap;html=1;size=14;verticalAlign=top;align=left;spacingTop=-6;rounded=0;shadow=0;comic=0;labelBackgroundColor=none;strokeWidth=1;fontFamily=Verdana;fontSize=10;" parent="1" vertex="1">
          <mxGeometry x="340" y="560" width="145" height="39" as="geometry" />
        </mxCell>
        <mxCell id="4Fi33i3VNf01kXt7bkc9-35" style="edgeStyle=orthogonalEdgeStyle;rounded=0;orthogonalLoop=1;jettySize=auto;html=1;dashed=1;fontFamily=Verdana;fontSize=10;endArrow=open;endFill=0;" parent="1" edge="1">
          <mxGeometry relative="1" as="geometry">
            <mxPoint x="320" y="597" as="sourcePoint" />
            <mxPoint x="155" y="597" as="targetPoint" />
          </mxGeometry>
        </mxCell>
        <mxCell id="4Fi33i3VNf01kXt7bkc9-37" style="edgeStyle=orthogonalEdgeStyle;rounded=0;orthogonalLoop=1;jettySize=auto;html=1;entryX=0.1;entryY=0.05;entryDx=0;entryDy=0;entryPerimeter=0;fontFamily=Verdana;fontSize=10;endArrow=classic;endFill=1;" parent="1" source="7baba1c4bc27f4b0-9" target="4Fi33i3VNf01kXt7bkc9-36" edge="1">
          <mxGeometry relative="1" as="geometry">
            <Array as="points">
              <mxPoint x="240" y="636" />
              <mxPoint x="240" y="636" />
            </Array>
          </mxGeometry>
        </mxCell>
        <mxCell id="4Fi33i3VNf01kXt7bkc9-39" value="&lt;div&gt;updateInterestState&lt;/div&gt;&lt;div&gt;(PoolState, LUP)&lt;br&gt;&lt;/div&gt;" style="edgeLabel;html=1;align=center;verticalAlign=middle;resizable=0;points=[];fontSize=10;fontFamily=Verdana;" parent="4Fi33i3VNf01kXt7bkc9-37" vertex="1" connectable="0">
          <mxGeometry x="0.3959" y="-1" relative="1" as="geometry">
            <mxPoint x="-73" as="offset" />
          </mxGeometry>
        </mxCell>
        <mxCell id="4Fi33i3VNf01kXt7bkc9-38" style="edgeStyle=orthogonalEdgeStyle;rounded=0;orthogonalLoop=1;jettySize=auto;html=1;dashed=1;fontFamily=Verdana;fontSize=10;endArrow=open;endFill=0;exitX=0.1;exitY=0.917;exitDx=0;exitDy=0;exitPerimeter=0;" parent="1" source="4Fi33i3VNf01kXt7bkc9-36" edge="1">
          <mxGeometry relative="1" as="geometry">
            <mxPoint x="490" y="740" as="sourcePoint" />
            <mxPoint x="155" y="740" as="targetPoint" />
            <Array as="points" />
          </mxGeometry>
        </mxCell>
        <mxCell id="4Fi33i3VNf01kXt7bkc9-40" value="&lt;div&gt;update EMAs state&lt;/div&gt;&lt;div&gt;&lt;br&gt;&lt;/div&gt;&lt;div&gt;update interestRate and interestRateUpdate time&lt;br&gt;&lt;/div&gt;&lt;div&gt;&lt;br&gt;&lt;/div&gt;&lt;div&gt;emit UpdateInterestRate()&lt;br&gt;&lt;/div&gt;" style="shape=note;whiteSpace=wrap;html=1;size=14;verticalAlign=top;align=left;spacingTop=-6;rounded=0;shadow=0;comic=0;labelBackgroundColor=none;strokeWidth=1;fontFamily=Verdana;fontSize=10;" parent="1" vertex="1">
          <mxGeometry x="510" y="650" width="145" height="90" as="geometry" />
        </mxCell>
        <mxCell id="4Fi33i3VNf01kXt7bkc9-41" value="&lt;div&gt;update inflator&lt;/div&gt;&lt;div&gt;update inflatorUpdate time&lt;br&gt;&lt;/div&gt;" style="shape=note;whiteSpace=wrap;html=1;size=14;verticalAlign=top;align=left;spacingTop=-6;rounded=0;shadow=0;comic=0;labelBackgroundColor=none;strokeWidth=1;fontFamily=Verdana;fontSize=10;" parent="1" vertex="1">
          <mxGeometry x="165" y="770" width="145" height="30" as="geometry" />
        </mxCell>
        <mxCell id="4Fi33i3VNf01kXt7bkc9-47" value="&lt;div&gt;reverts on&lt;/div&gt;&lt;div&gt;LUPBelowHTP()&lt;/div&gt;" style="shape=note;whiteSpace=wrap;html=1;size=14;verticalAlign=top;align=left;spacingTop=-6;rounded=0;shadow=0;comic=0;labelBackgroundColor=none;strokeWidth=1;fontFamily=Verdana;fontSize=10;" parent="1" vertex="1">
          <mxGeometry x="346" y="408" width="145" height="40" as="geometry" />
        </mxCell>
        <mxCell id="0AgbYZF2cK22vaf25f5i-2" value="(removedAmount, redeemedLP)" style="edgeLabel;html=1;align=center;verticalAlign=middle;resizable=0;points=[];fontSize=10;fontFamily=Verdana;" vertex="1" connectable="0" parent="1">
          <mxGeometry x="237.5" y="587" as="geometry" />
        </mxCell>
      </root>
    </mxGraphModel>
  </diagram>
</mxfile>
